<?xml version="1.0"?><svg width="640" height="480.00000000000006" xmlns="http://www.w3.org/2000/svg" xmlns:xlink="http://www.w3.org/1999/xlink">
 <title>Hibiscus flower</title>
 <metadata id="metadata8159">image/svg+xml</metadata>
 <g>
  <title>Layer 1</title>
  <image x="40" y="348" width="2" height="34" id="svg_1" xlink:href="images/logo.png"/>
  <g id="svg_2">
   <path id="path7488" d="m197.636993,377.614014c-6.395996,-5.367004 -6.21199,-20.184021 -18.246994,-14.902008c-11.619995,-1.33902 -14.399002,-15.966003 -8.912994,-24.641998c4.692993,-9.621002 13.935989,-16.287994 17.82399,-26.380005c-9.149002,-4.993988 -13.783997,7.712006 -16.60199,14.21701c-4.447006,9.375 -8.861008,20.737 -19.128998,24.947998c-11.859009,3.709991 -7.560013,-16.039001 -17.161011,-12.460022c-9.685997,3.378998 -15.578995,-7.278992 -7.39299,-13.199982c0.169998,-10.565002 1.348999,-21.830017 12.464996,-26.908997c13.733994,-9.376007 32.028,-11.830017 47.681992,-6.132019c-7.358002,7.179016 -20.233002,2.945007 -27.737,10.656006c-7.694992,8.136017 4.778,16.424988 11.758011,9.221008c7.483002,-1.968018 20.560989,-16.731018 24.884995,-5.569c-3.755997,6.963989 -13.947006,22.256989 1.044998,22.899994c9.471008,-3.375 10.522003,15.493011 18.531006,6.277008c4.960999,-9.08902 -3.966003,-17.33902 -4.331009,-26.511017c2.361008,-10.832001 5.44101,5.206024 7.355011,9.026001c5.983994,13.10202 19.300995,24.098022 17.750992,39.774017c-4.246994,8.96698 -15.139999,12.056 -20.139999,20.634979c-5.576996,4.39502 -14.981003,5.266022 -19.643005,-0.948975zm-8.093994,-110.633026c-18.518997,-2.496979 -38.839005,-11.839981 -45.268997,-30.744995c-4.513,-10.496994 11.229004,-14.009995 5.990005,-23.386993c-0.606003,-11.695999 14.925995,-19.285004 23.315994,-10.714996c7.009995,7.369995 15.882004,-5.904999 22.201004,4.278992c7.774994,8.169006 4.603989,19.365005 3.563995,29.19101c-0.278,9.052002 1.802994,18.026993 4.985992,26.454987c-6.125992,2.391998 -8.113998,-12.507996 -12.237991,-16.69899c-3.412003,-6.787994 -8.177002,-18.182007 -17.744995,-14.761993c-6.430008,6.92099 2.778992,15.992996 5.776993,22.761993c2.460999,4.090988 18.947006,12.608994 9.417999,13.620987l0,0zm66.795013,-11.597992c-11.902008,5.688995 -21.627014,15.020996 -29.840012,25.187012c8.921997,3.695984 15.225006,-11.520996 23.733994,-5.587006c1.960999,4.824005 -2.806,10.901001 5.886993,9.867004c11.127014,-3.904999 16.528015,13.337006 4.518005,15.048004c-6.272995,1.80899 -18.161987,-7.345001 -13.060989,3.755981c3.358002,12.345001 -15.473999,9.675995 -17.680008,0.567993c-1.998001,-5.066986 -9.334991,-12.034973 -9.509995,-2.294983c0.888992,9.140991 5.783997,17.695007 11.237,24.95401c6.526001,7.690002 15.535995,15.284973 26.116013,15.233978c11.328979,-1.065002 18.830994,-12.230988 19.383972,-22.927002c4.483002,-8.503998 17.198029,-7.078003 21.565002,-16.237976c6.678009,-9.184998 6.090027,-24.775024 -4.699982,-30.631012c-6.812012,-7.394012 -9.901001,-21.412003 -22.72702,-19.731003c-5.10498,-0.167999 -10.169983,1.001007 -14.922974,2.794998zm-4.77301,-57.903c-8.585007,1.046997 -10.141998,19.215012 -17.925003,8.518005c-9.298004,-5.365005 -17.647995,4.513 -21.964005,11.731003c-8.61499,15.886993 -5.830002,35.261993 0.238998,51.477997c4.935013,4.338989 -1.031998,-8.186005 0.680008,-10.859009c0.843002,-6.577988 1.863998,-19.64299 9.703003,-20.277985c2.095993,5.465988 7.636002,9.735992 9.653992,1.28299c5.533005,-9.037994 19.942001,-0.104004 9.633011,7.400009c-7.264999,8.235992 -18.161011,16.389999 -18.686005,28.029984c6.905991,-1.195984 11.854004,-12.543976 19.763992,-15.548004c8.969009,-6.344986 19.735016,-9.390991 29.02301,-15.044983c9.743988,-6.264008 10.562988,-20.990997 0.023987,-26.005997c-0.076996,-10.108002 -3.078979,-24.122009 -16.617996,-21.573013l-1.792999,0.339005l-1.733994,0.529999l0,0z" fill="#ff5555"/>
   <path d="m106.847,297.855988c-3.718002,-2.959991 -14.253998,2.029999 -12.175201,-6.265991c-2.135101,-3.794006 -9.836395,-7.592987 -3.397102,-11.838989c4.826904,-3.110992 -1.304298,-9.181 4.519501,-11.786011c3.992004,-3.497009 6.581802,1.764008 4.431801,5.05899c1.297005,7.265015 10.616005,5.888 15.278,2.848999c4.701004,-1.519989 2.442001,-6.286987 -1.714996,-5.806976c-6.400002,-1.806 -0.357002,-10.815002 3.633995,-5.287018c1.460007,5.341003 6.771004,10.184021 12.069008,6.136993c3.695999,-2.416992 0.570999,-5.577972 -2.677002,-5.742981c-4.737,-2.048004 -1.504005,-10.81601 2.847992,-6.593018c2.141998,4.580017 4.589005,12.664001 11.296005,9.712006c4.567001,-2.503998 -0.285995,-6.602997 -2.919006,-7.985992c-3.218994,-5.492996 7.153,-8.395996 6.12001,-1.471008c-0.757004,7.027008 6.104004,9.115021 11.735001,7.571014c10.293991,-1.257019 20.780991,-0.082001 30.847,2.247986c9.881989,2.53302 19.690002,6.875 26.988998,14.130005c3.531998,5.665009 -3.171997,13.828003 -9.432999,11.177002c-7.400009,-1.772003 -12.914001,-7.559998 -19.99501,-10.117004c-13.127991,-6.391998 -27.478989,-10.955994 -42.201996,-10.908997c-6.893005,1.248993 0.362,11.695007 -6.201004,12.97699c-6.135986,-0.908997 -2.579987,-9.071991 0.468002,-10.695984c-2.369003,-4.955994 -11.773994,-0.725006 -11.295998,4.408997c0.878998,3.975006 -0.169998,11.553009 -5.687996,7.398987c-4.272003,-4.502991 5.911995,-5.993988 3.162994,-10.172974c-4.432999,-2.617004 -9.441994,2.544983 -12.681999,5.306c-4.735001,4.802002 3.597,9.451996 1.220001,14.460999c-1.007996,1.272003 -2.726997,1.530975 -4.237999,1.237976z" id="path7490" fill="#ffb380"/>
  </g>
 </g>
</svg>